<svg width="100%" height="100%" viewBox="0 0 106 62" fill="none" xmlns="http://www.w3.org/2000/svg">
<path d="M11.8002 3.53335C6.73352 6.86668 4.46685 11.1333 4.33352 17.2667C4.33352 23.2667 8.33352 28.3333 17.6669 34.3333C24.7335 38.8667 28.3335 43.9333 28.3335 49.2667C28.3335 62.6 9.13352 60.7333 4.06685 47C2.46685 42.3333 -0.466482 40.3333 0.866851 44.6C1.13352 45.9333 1.80018 49.5333 2.33352 52.6C3.13352 57.5333 3.80018 58.3333 7.80019 59.6667C20.2002 63.8 32.6002 59.9333 37.0002 50.8667C41.4002 41.5333 38.2002 35 24.6002 25.8C14.2002 18.7333 11.2669 14.0667 13.9335 8.20001C14.7335 6.46668 16.8669 4.60001 18.6002 4.20001C20.3335 3.66668 21.6669 2.86668 21.6669 2.20001C21.6669 0.0666805 15.8002 0.86668 11.8002 3.53335ZM18.3335 25.2667C30.6002 34.0667 35.0002 39 35.0002 44.0667C35.0002 50.2 31.4002 53.5333 31.2669 47.5333C31.1335 42.3333 26.0669 35.6667 18.6002 31C11.1335 26.2 6.46685 19.5333 7.66685 15.5333C8.60019 12.7333 8.73352 12.7333 10.3335 16.6C11.2669 18.8667 14.8669 22.7333 18.3335 25.2667Z" fill="#722022"/>
<path d="M64.3336 27.2667C58.3336 41.8 52.467 54.7333 51.4003 55.9333C50.3336 57.1333 48.067 58.4667 46.467 58.7333C45.0003 59 48.2003 59.2667 53.667 59.2667C59.1336 59.2667 62.3336 59 60.6003 58.7333C58.867 58.3333 57.267 57.4 56.867 56.4667C56.467 55.5333 59.667 46.0667 63.8003 35.6667L71.4003 16.6L79.267 36.4667C83.5336 47.4 87.0003 56.4667 87.0003 56.7333C87.0003 56.8667 85.667 57.6667 84.067 58.3333C81.9336 59.1333 85.1336 59.5333 94.3336 59.5333C104.467 59.4 106.867 59.1333 104.2 58.2C100.334 56.7333 98.7336 53.5333 85.0003 19.9333C80.7336 9.53334 76.867 1 76.3336 1C75.8003 1 70.467 12.8667 64.3336 27.2667ZM86.3336 31.6667C94.7336 52.7333 96.067 58.8667 91.5336 55.9333C90.7336 55.4 86.867 46.8667 83.0003 37C79.1336 27.1333 75.4003 18.2 74.6003 17.4C73.267 15.5333 74.3336 9 76.067 9C76.6003 9 81.267 19.2667 86.3336 31.6667Z" fill="#722022"/>
<path d="M29.2669 7C27.0002 10.2 27.0002 10.4667 29.2669 13.6667C30.6002 15.4 31.9336 16.8667 32.3336 16.8667C32.7336 16.8667 34.0669 15.4 35.4002 13.6667C37.6669 10.4667 37.6669 10.2 35.4002 7C34.0669 5.26667 32.7336 3.8 32.3336 3.8C31.9336 3.8 30.6002 5.26667 29.2669 7Z" fill="#722022"/>
<path d="M69.2666 39.4C66.3333 42.6 66.4666 44.0667 69.5333 46.8667C71.8 49 72.0666 48.8667 74.0666 45.9333C75.9333 43.1333 75.8 42.6 73.8 39.8C71.5333 36.8667 71.5333 36.8667 69.2666 39.4Z" fill="#722022"/>
</svg>
