<svg width="580" height="580" viewBox="0 0 580 580" fill="none" xmlns="http://www.w3.org/2000/svg">
<g clip-path="url(#clip0_4512_70)">
<path d="M66.2751 1.76799C24.9401 1.76799 1.7041 23.139 1.7041 66.804V516.927C1.7041 557.771 22.5991 579.156 63.8961 579.156H515.92C557.227 579.156 578.149 558.841 578.149 516.927V66.804C578.149 24.203 557.227 1.76799 514.628 1.76799C514.624 1.76799 66.1331 1.62499 66.2751 1.76799Z" fill="#722022" stroke="#EEEEEE" stroke-width="3.408"/>
<path fill-rule="evenodd" clip-rule="evenodd" d="M290.725 56.6353L274.156 495.077H161.996V519.294H293.274L290.725 56.6353Z" fill="white" stroke="white" stroke-width="10.8292" stroke-linecap="round" stroke-linejoin="round"/>
<path fill-rule="evenodd" clip-rule="evenodd" d="M58.1294 137.956C72.4711 151.942 108.238 167.917 129.495 166.246C154.108 166.101 179.655 156.615 205.967 139.48C230.31 123.165 258.958 115.459 290.087 112.715L289.45 133.108C256.221 129.451 233.114 148.571 205.967 158.599C186.081 169.09 167.492 180.29 129.495 180.903C90.1855 176.775 72.0199 157.007 58.1294 137.956Z" fill="white" stroke="white" stroke-width="5.41462" stroke-linecap="round" stroke-linejoin="round"/>
<path fill-rule="evenodd" clip-rule="evenodd" d="M37.728 384.585L121.848 182.178L204.693 384.585H37.728Z" stroke="white" stroke-width="10.8292" stroke-linecap="round" stroke-linejoin="round"/>
<path d="M35.1392 379.026C40.1091 412.007 76.7565 437.655 121.21 437.655C165.664 437.655 202.312 412.007 207.282 379.026H35.1392Z" fill="white" stroke="white" stroke-width="10.8292" stroke-linecap="round" stroke-linejoin="round"/>
<path fill-rule="evenodd" clip-rule="evenodd" d="M291.093 56.6353L307.662 495.077H419.821V519.294H288.543L291.093 56.6353Z" fill="white" stroke="white" stroke-width="10.8292" stroke-linecap="round" stroke-linejoin="round"/>
<path fill-rule="evenodd" clip-rule="evenodd" d="M523.688 137.956C509.346 151.942 473.579 167.917 452.322 166.246C427.709 166.101 402.162 156.615 375.85 139.48C351.507 123.165 322.859 115.459 291.73 112.715L292.367 133.108C325.596 129.451 348.703 148.571 375.85 158.599C395.736 169.09 414.325 180.29 452.322 180.903C491.632 176.775 509.797 157.007 523.688 137.956Z" fill="white" stroke="white" stroke-width="5.41462" stroke-linecap="round" stroke-linejoin="round"/>
<path fill-rule="evenodd" clip-rule="evenodd" d="M544.089 384.585L459.969 182.178L377.124 384.585H544.089Z" stroke="white" stroke-width="10.8292" stroke-linecap="round" stroke-linejoin="round"/>
<path d="M546.678 379.026C541.708 412.007 505.06 437.655 460.607 437.655C416.153 437.655 379.505 412.007 374.535 379.026H546.678Z" fill="white" stroke="white" stroke-width="10.8292" stroke-linecap="round" stroke-linejoin="round"/>
</g>
<defs>
<clipPath id="clip0_4512_70">
<rect width="580" height="580" fill="white"/>
</clipPath>
</defs>
</svg>
